<svg xmlns="http://www.w3.org/2000/svg" width="18" height="18" viewBox="0 0 18 18">
  <title>Google</title>
  <path fill="#4285f4" d="M17.64 9.2c0-.64-.06-1.26-.16-1.86H9v3.52h4.84a4.14 4.14 0 0 1-1.8 2.72v2.28h2.92c1.71-1.57 2.68-3.9 2.68-6.66Z"/>
  <path fill="#34a853" d="M9 18c2.43 0 4.47-.8 5.96-2.14l-2.92-2.28c-.8.54-1.84.86-3.04.86a5.25 5.25 0 0 1-4.93-3.63H1.05v2.35A9 9 0 0 0 9 18Z"/>
  <path fill="#fbbc05" d="M4.07 10.81A5.42 5.42 0 0 1 3.8 9c0-.63.1-1.24.27-1.81V4.84H1.05A9 9 0 0 0 0 9c0 1.45.35 2.82 1.05 4.16l3.02-2.35Z"/>
  <path fill="#ea4335" d="M9 3.58c1.32 0 2.5.45 3.43 1.34L15 2.34A8.62 8.62 0 0 0 9 0a9 9 0 0 0-7.95 4.84l3.02 2.35A5.25 5.25 0 0 1 9 3.58Z"/>
</svg>
